<svg width="116" height="106" viewBox="0 0 116 106" fill="none" xmlns="http://www.w3.org/2000/svg">
<g id="icone">
<g id="Group">
<path id="Vector" d="M47.926 87.8695L51.7229 78.4718L49.7218 77.6633C48.4701 78.7192 46.7717 79.8599 44.6115 81.0497C42.4663 82.2751 39.7396 82.9708 36.4566 83.1471C33.1736 83.3234 29.2599 82.5083 24.7004 80.6661C20.1409 78.824 16.0862 76.2429 13.058 73.1631C10.0147 70.0477 8.02815 66.5048 7.11876 62.4837C6.20937 58.4625 6.65529 54.2229 8.45652 49.7647C10.2577 45.3065 12.9128 41.871 16.3091 39.7368C19.6952 37.6279 23.595 36.5811 27.9936 36.5608C32.3819 36.5659 36.9951 37.5458 41.808 39.4903L61.8445 47.5856L63.5741 43.3047C65.1297 39.4545 65.213 35.8934 63.8495 32.6316C62.486 29.3699 59.3851 26.7616 54.5723 24.8171C49.7595 22.8726 45.7882 22.5646 42.4052 23.7908C38.9969 25.0067 36.1734 27.2545 33.9452 30.5088L22.8063 21.1761C25.3132 18.0343 28.3457 15.4879 31.8783 13.5267C35.411 11.5654 39.4936 10.5041 44.1465 10.2919C48.7993 10.0797 53.869 11.0967 59.3911 13.3278C67.9529 16.787 73.7751 21.7028 76.9187 28.0704C80.037 34.4278 79.9867 41.6266 76.7322 49.6817L59.4363 92.4905M31.3425 70.0608C36.8646 72.2918 41.9675 72.4972 46.6158 70.6921C51.2893 68.8971 54.7215 65.2157 56.9628 59.6683L57.5052 58.3258L38.2539 50.5478C34.6063 49.074 31.3507 48.6721 28.4871 49.342C25.6234 50.0119 23.5776 51.8667 22.3495 54.9063C21.1214 57.946 21.3143 60.8232 22.8928 63.553C24.4712 66.2828 27.2794 68.4486 31.3069 70.0759" fill="black"/>
<path id="Vector_2" d="M109.542 50.8862L97.3372 57.6826L97.2914 57.723L88.1337 27.1505L104.32 33.6901L109.542 50.8862Z" fill="black"/>
</g>
</g>
</svg>
